<svg width="226" height="92" viewBox="0 0 226 92" fill="none" xmlns="http://www.w3.org/2000/svg">
<path d="M5.16477 70V17.6364H14.6506V41.696H15.2898L35.7188 17.6364H47.3011L27.0511 41.1335L47.4801 70H36.0767L20.4545 47.5511L14.6506 54.4034V70H5.16477Z" fill="#333333"/>
<path d="M131.165 70V17.6364H140.651V41.696H141.29L161.719 17.6364H173.301L153.051 41.1335L173.48 70H162.077L146.455 47.5511L140.651 54.4034V70H131.165Z" fill="#333333"/>
<path d="M125.651 17.6364V70H116.165V17.6364H125.651Z" fill="#333333"/>
<path fill-rule="evenodd" clip-rule="evenodd" d="M61 13C55.4772 13 51 17.4772 51 23V23.2309L58.7846 55.9077H59.1951L68.2263 21.5455H78.0061L87.0132 55.9801H87.4479L95.634 21.5455H107.056L93.1914 70H101C106.523 70 111 65.5228 111 60V23C111 17.4772 106.523 13 101 13H61ZM82.4237 70L73.2973 38.6662H72.911L63.808 70H82.4237Z" fill="#FF0000"/>
<path d="M176.585 17.6364H187.298L200.108 40.8011H200.619L213.429 17.6364H224.142L205.094 50.4659V70H195.634V50.4659L176.585 17.6364Z" fill="#333333"/>
<path d="M75.3153 81.9091C75.2599 81.4413 75.0353 81.0781 74.6413 80.8196C74.2474 80.5611 73.7642 80.4318 73.1918 80.4318C72.7732 80.4318 72.407 80.4995 72.093 80.6349C71.7822 80.7704 71.5391 80.9566 71.3636 81.1935C71.1913 81.4305 71.1051 81.6998 71.1051 82.0014C71.1051 82.2538 71.1651 82.4708 71.2852 82.6523C71.4083 82.8308 71.5652 82.9801 71.756 83.1001C71.9469 83.2171 72.1469 83.314 72.3562 83.391C72.5655 83.4648 72.7578 83.5249 72.9332 83.571L73.8935 83.8295C74.1397 83.8942 74.4136 83.9834 74.7152 84.0973C75.0199 84.2112 75.3107 84.3666 75.5877 84.5636C75.8678 84.7575 76.0986 85.0067 76.2802 85.3114C76.4618 85.6161 76.5526 85.9901 76.5526 86.4332C76.5526 86.9441 76.4187 87.4058 76.1509 87.8182C75.8862 88.2306 75.4985 88.5584 74.9876 88.8015C74.4798 89.0446 73.8627 89.1662 73.1364 89.1662C72.4593 89.1662 71.873 89.0569 71.3775 88.8384C70.8851 88.6199 70.4973 88.3152 70.2141 87.9244C69.9341 87.5335 69.7756 87.0795 69.7386 86.5625H70.9205C70.9512 86.9195 71.0713 87.215 71.2805 87.4489C71.4929 87.6797 71.7607 87.852 72.0838 87.9659C72.41 88.0767 72.7609 88.1321 73.1364 88.1321C73.5734 88.1321 73.9658 88.0613 74.3136 87.9197C74.6613 87.7751 74.9368 87.575 75.1399 87.3196C75.343 87.0611 75.4446 86.7595 75.4446 86.4148C75.4446 86.1009 75.3569 85.8454 75.1815 85.6484C75.006 85.4515 74.7752 85.2914 74.489 85.1683C74.2028 85.0452 73.8935 84.9375 73.5611 84.8452L72.3977 84.5128C71.6591 84.3004 71.0743 83.9973 70.6435 83.6033C70.2126 83.2094 69.9972 82.6939 69.9972 82.0568C69.9972 81.5275 70.1403 81.0658 70.4265 80.6719C70.7158 80.2749 71.1036 79.9671 71.5898 79.7486C72.0792 79.527 72.6255 79.4162 73.2287 79.4162C73.8381 79.4162 74.3797 79.5254 74.8537 79.744C75.3277 79.9594 75.7031 80.2549 75.9801 80.6303C76.2602 81.0058 76.4079 81.4321 76.4233 81.9091H75.3153ZM85.9572 84.2727C85.9572 85.2699 85.7772 86.1316 85.4171 86.858C85.057 87.5843 84.563 88.1444 83.9352 88.5384C83.3073 88.9323 82.5902 89.1293 81.7839 89.1293C80.9776 89.1293 80.2605 88.9323 79.6326 88.5384C79.0048 88.1444 78.5108 87.5843 78.1507 86.858C77.7906 86.1316 77.6106 85.2699 77.6106 84.2727C77.6106 83.2756 77.7906 82.4138 78.1507 81.6875C78.5108 80.9612 79.0048 80.401 79.6326 80.0071C80.2605 79.6132 80.9776 79.4162 81.7839 79.4162C82.5902 79.4162 83.3073 79.6132 83.9352 80.0071C84.563 80.401 85.057 80.9612 85.4171 81.6875C85.7772 82.4138 85.9572 83.2756 85.9572 84.2727ZM84.8492 84.2727C84.8492 83.4541 84.7123 82.7631 84.4384 82.1999C84.1675 81.6367 83.7998 81.2105 83.335 80.9212C82.8734 80.6319 82.3563 80.4872 81.7839 80.4872C81.2115 80.4872 80.6929 80.6319 80.2282 80.9212C79.7665 81.2105 79.3987 81.6367 79.1248 82.1999C78.854 82.7631 78.7186 83.4541 78.7186 84.2727C78.7186 85.0914 78.854 85.7823 79.1248 86.3455C79.3987 86.9087 79.7665 87.335 80.2282 87.6243C80.6929 87.9136 81.2115 88.0582 81.7839 88.0582C82.3563 88.0582 82.8734 87.9136 83.335 87.6243C83.7998 87.335 84.1675 86.9087 84.4384 86.3455C84.7123 85.7823 84.8492 85.0914 84.8492 84.2727ZM87.4273 89V79.5455H88.5722V87.9844H92.967V89H87.4273ZM100.489 79.5455H101.634V85.8054C101.634 86.4517 101.482 87.0288 101.177 87.5366C100.876 88.0413 100.449 88.4399 99.8984 88.7322C99.3475 89.0215 98.7012 89.1662 97.9595 89.1662C97.2178 89.1662 96.5715 89.0215 96.0206 88.7322C95.4697 88.4399 95.0419 88.0413 94.7372 87.5366C94.4356 87.0288 94.2848 86.4517 94.2848 85.8054V79.5455H95.4297V85.7131C95.4297 86.1747 95.5312 86.5856 95.7343 86.9457C95.9375 87.3027 96.2268 87.5843 96.6022 87.7905C96.9808 87.9936 97.4332 88.0952 97.9595 88.0952C98.4858 88.0952 98.9382 87.9936 99.3167 87.7905C99.6953 87.5843 99.9846 87.3027 100.185 86.9457C100.388 86.5856 100.489 86.1747 100.489 85.7131V79.5455ZM102.948 80.5611V79.5455H110.039V80.5611H107.066V89H105.921V80.5611H102.948ZM112.496 79.5455V89H111.351V79.5455H112.496ZM122.314 84.2727C122.314 85.2699 122.134 86.1316 121.774 86.858C121.414 87.5843 120.92 88.1444 120.292 88.5384C119.664 88.9323 118.947 89.1293 118.141 89.1293C117.334 89.1293 116.617 88.9323 115.989 88.5384C115.362 88.1444 114.868 87.5843 114.508 86.858C114.147 86.1316 113.967 85.2699 113.967 84.2727C113.967 83.2756 114.147 82.4138 114.508 81.6875C114.868 80.9612 115.362 80.401 115.989 80.0071C116.617 79.6132 117.334 79.4162 118.141 79.4162C118.947 79.4162 119.664 79.6132 120.292 80.0071C120.92 80.401 121.414 80.9612 121.774 81.6875C122.134 82.4138 122.314 83.2756 122.314 84.2727ZM121.206 84.2727C121.206 83.4541 121.069 82.7631 120.795 82.1999C120.524 81.6367 120.157 81.2105 119.692 80.9212C119.23 80.6319 118.713 80.4872 118.141 80.4872C117.568 80.4872 117.05 80.6319 116.585 80.9212C116.123 81.2105 115.756 81.6367 115.482 82.1999C115.211 82.7631 115.075 83.4541 115.075 84.2727C115.075 85.0914 115.211 85.7823 115.482 86.3455C115.756 86.9087 116.123 87.335 116.585 87.6243C117.05 87.9136 117.568 88.0582 118.141 88.0582C118.713 88.0582 119.23 87.9136 119.692 87.6243C120.157 87.335 120.524 86.9087 120.795 86.3455C121.069 85.7823 121.206 85.0914 121.206 84.2727ZM131.281 79.5455V89H130.173L125.021 81.5767H124.929V89H123.784V79.5455H124.892L130.063 86.9872H130.155V79.5455H131.281ZM136.318 89V79.5455H137.463V87.9844H141.858V89H136.318ZM143.176 89V79.5455H144.321V87.9844H148.716V89H143.176ZM150.033 89V79.5455H153.228C153.97 79.5455 154.576 79.6793 155.047 79.9471C155.521 80.2118 155.872 80.5703 156.099 81.0227C156.327 81.4751 156.441 81.9799 156.441 82.5369C156.441 83.094 156.327 83.6003 156.099 84.0558C155.875 84.5112 155.527 84.8744 155.056 85.1452C154.585 85.413 153.982 85.5469 153.247 85.5469H150.957V84.5312H153.21C153.717 84.5312 154.125 84.4435 154.433 84.2681C154.741 84.0927 154.964 83.8557 155.102 83.5572C155.244 83.2556 155.315 82.9155 155.315 82.5369C155.315 82.1584 155.244 81.8198 155.102 81.5213C154.964 81.2228 154.739 80.9889 154.428 80.8196C154.117 80.6473 153.705 80.5611 153.191 80.5611H151.178V89H150.033Z" fill="black"/>
</svg>
